<svg width="1200" height="1282" version="1.1" xmlns="http://www.w3.org/2000/svg" desc="Created with imagetracer.js version 1.2.6" ><path fill="rgb(0,0,0)" stroke="rgb(0,0,0)" stroke-width="1" opacity="0" d="M 0 0 L 1200 0 L 1200 1282 L 0 1282 L 0 0 Z M 612 105 L 604 109 L 594 121 Q 582 157 567 190 L 563 204 L 545 246 L 541 260 L 520 310 L 515 327 L 497 369 L 493 383 L 472 433 L 469 444 L 450 491 L 450 493 L 448 495 L 445 506 L 425 555 L 425 557 L 401 615 Q 400 623 403 627 Q 407 633 417 635 L 428 634 L 437 628 L 454 610 Q 453 607 456 608 L 456 606 L 458 606 L 465 598 Q 464 595 467 596 L 476 585 L 479 583 L 503 556 L 507 553 L 513 546 Q 547 509 587 477 Q 589 478 588 475 L 632 445 L 663 429 L 683 422 Q 689 424 687 419 L 667 418 L 666 417 L 647 417 L 646 416 L 592 416 L 591 417 L 571 418 L 557 421 L 569 384 L 583 348 L 595 310 L 607 282 L 615 275 L 619 275 L 627 280 L 635 292 L 637 298 L 655 327 L 662 342 L 669 352 L 718 440 L 729 457 L 739 477 L 749 492 L 756 507 L 775 538 L 781 551 L 788 561 L 819 617 L 823 617 L 832 612 L 816 569 L 802 537 L 799 526 L 779 479 L 776 468 L 756 421 L 752 407 L 736 370 L 727 344 L 685 241 L 680 225 L 663 186 L 657 167 L 645 140 L 640 125 L 634 114 L 625 106 Q 620 104 612 105 Z M 843 629 L 830 635 Q 822 641 820 653 L 820 666 L 825 677 Q 832 686 846 688 L 856 688 L 869 683 Q 878 677 881 666 Q 883 650 877 643 Q 872 634 862 630 Q 854 628 843 629 Z M 159 676 L 153 686 L 153 689 L 145 708 Q 141 709 144 711 L 128 750 L 123 759 L 121 767 Q 117 768 120 770 L 106 804 L 104 806 L 104 809 L 98 821 L 98 824 L 92 839 L 95 840 L 116 840 Q 120 838 117 837 L 120 832 L 130 804 L 132 802 L 133 797 L 135 795 L 201 795 L 203 804 L 205 806 L 205 809 L 211 821 L 214 831 L 214 833 Q 217 834 217 839 L 221 840 L 241 840 L 244 839 L 236 820 L 234 811 L 232 809 L 228 796 L 226 794 L 220 779 L 220 776 L 215 767 L 214 761 Q 210 759 213 758 L 211 756 L 208 745 L 206 743 L 195 713 L 190 703 L 186 689 L 182 682 L 182 679 Q 180 674 179 677 L 160 677 L 159 676 Z M 336 676 L 335 723 L 319 718 Q 290 715 277 728 Q 273 727 274 730 L 270 733 L 263 742 L 258 753 L 254 776 L 255 793 L 258 803 L 258 805 L 260 808 L 260 810 L 262 810 L 261 812 L 270 823 L 272 826 Q 283 836 300 840 L 302 840 L 306 841 L 311 842 L 324 842 L 325 841 L 329 842 L 334 840 L 353 837 L 359 834 L 357 823 L 357 677 L 337 677 L 336 676 Z M 392 676 L 390 678 L 390 839 L 394 840 L 412 840 L 415 839 L 416 705 L 428 731 Q 427 734 430 733 L 430 737 L 437 748 L 447 769 L 447 771 L 457 789 Q 456 792 459 791 L 461 796 L 470 802 L 477 803 L 484 792 L 509 741 Q 508 738 511 739 L 511 736 L 515 730 L 515 728 L 527 705 L 527 838 L 531 840 L 549 840 L 551 839 L 552 840 L 552 678 L 552 677 L 516 677 L 496 719 Q 492 720 495 722 L 476 758 L 476 760 L 474 760 L 473 765 L 472 768 Q 469 769 470 767 L 470 765 L 447 720 L 447 718 L 446 717 L 446 716 L 427 680 L 427 677 L 393 677 L 392 676 Z M 783 676 L 781 679 L 781 723 L 767 718 L 745 718 Q 732 721 724 727 Q 721 726 722 729 L 715 735 Q 716 737 713 736 L 707 748 L 707 750 L 704 755 L 702 769 L 701 772 L 701 787 L 702 788 L 703 799 L 709 814 L 714 820 Q 713 822 716 821 L 716 823 L 726 831 L 738 838 L 753 841 L 758 842 L 770 842 L 772 841 L 774 841 L 776 842 Q 778 839 785 840 L 787 840 L 791 839 L 793 839 L 795 838 L 797 838 L 803 836 L 805 834 Q 807 828 804 827 L 804 678 Q 803 675 802 677 L 784 677 L 783 676 Z M 920 676 L 919 677 L 899 677 L 897 679 L 897 838 L 900 840 L 919 840 L 920 839 L 921 782 L 921 784 L 924 785 L 927 787 L 936 798 Q 935 800 938 799 L 946 811 L 949 812 L 959 824 Q 958 826 961 825 L 965 831 Q 964 833 967 832 L 970 837 L 976 840 L 998 840 L 1001 839 Q 1002 836 999 837 L 993 828 L 990 827 Q 991 824 988 825 L 986 822 Q 987 819 985 820 L 983 818 L 981 816 L 973 808 Q 974 805 972 806 L 964 798 Q 965 795 962 796 L 962 794 L 961 794 L 953 786 L 947 779 L 938 773 L 945 767 L 946 765 L 954 759 L 955 757 L 967 746 Q 969 747 968 744 L 973 742 L 974 740 L 983 733 L 984 731 L 992 724 L 994 720 L 965 720 L 958 725 L 952 732 Q 949 731 950 734 L 943 740 L 940 744 Q 937 743 938 746 L 932 750 L 921 762 L 920 676 Z M 859 711 L 856 712 L 853 713 Q 846 715 845 712 Q 839 711 839 713 L 839 839 L 841 840 L 862 840 L 862 712 L 861 711 L 859 711 Z M 621 718 L 609 722 L 597 729 L 596 732 Q 593 731 594 734 L 592 734 L 590 739 Q 591 741 588 740 L 582 755 L 579 770 Q 577 801 590 818 Q 589 821 592 820 L 594 824 Q 593 826 596 825 L 598 829 L 602 831 Q 604 830 603 833 L 611 836 Q 612 839 614 837 L 620 840 L 631 841 L 632 842 L 644 842 L 646 841 L 649 842 L 654 840 L 656 841 L 673 836 L 675 834 L 668 816 L 662 819 L 645 822 L 643 822 L 631 821 L 629 821 L 624 819 Q 622 815 621 818 L 620 816 L 618 816 L 612 811 Q 613 808 610 809 L 610 806 L 608 806 L 604 794 Q 603 788 605 788 L 682 788 L 682 786 L 682 784 L 683 782 L 683 766 L 682 765 L 683 762 L 679 748 L 673 737 L 670 735 L 665 728 Q 662 729 663 726 L 660 726 L 660 724 L 643 718 L 621 718 Z M 1052 718 L 1034 722 L 1022 726 L 1029 745 L 1033 745 L 1035 743 L 1052 738 L 1063 738 L 1064 737 L 1075 739 L 1079 741 Q 1083 744 1084 751 Q 1085 756 1082 759 L 1075 764 L 1060 767 L 1058 767 L 1055 768 L 1053 768 L 1050 770 L 1048 769 L 1042 771 L 1040 771 L 1021 781 L 1017 786 Q 1018 788 1015 787 L 1013 793 L 1013 795 L 1011 801 L 1012 819 L 1016 825 L 1018 828 L 1027 835 L 1040 840 L 1043 840 L 1045 840 L 1049 841 L 1054 842 L 1067 842 L 1069 841 L 1072 842 L 1077 840 L 1079 841 L 1083 839 L 1085 840 L 1089 839 L 1091 839 L 1094 837 L 1102 836 L 1108 833 L 1107 820 L 1106 819 L 1106 745 L 1106 743 Q 1102 732 1095 725 Q 1091 726 1092 724 L 1091 724 L 1084 720 L 1076 718 L 1052 718 Z M 222 901 L 218 903 L 213 910 L 213 919 L 206 919 L 206 925 L 213 925 L 213 926 L 213 960 L 220 960 L 220 960 L 220 925 L 231 925 L 231 919 L 220 919 L 221 910 L 226 907 L 232 908 L 234 905 L 234 901 L 222 901 Z M 410 901 L 410 918 L 396 918 L 391 920 Q 383 925 381 935 Q 379 947 384 954 L 391 959 L 398 961 L 409 961 L 417 959 L 417 902 L 417 901 L 410 901 Z M 451 901 L 449 903 L 449 960 L 450 960 L 457 960 L 457 934 L 459 930 Q 462 925 469 924 L 472 925 L 476 932 L 476 960 L 477 960 L 483 960 L 483 928 L 481 924 L 475 918 Q 463 916 459 921 L 457 922 L 457 902 Q 457 900 451 901 Z M 582 901 L 582 955 L 583 957 L 590 961 L 598 960 L 596 954 L 594 955 Q 590 956 589 953 L 589 902 L 589 901 L 582 901 Z M 635 901 L 633 903 L 633 960 L 634 960 L 640 960 L 640 935 L 642 931 L 649 925 Q 657 923 659 929 L 659 960 L 660 960 L 667 960 L 667 934 L 664 923 L 658 918 Q 648 916 644 920 L 640 923 L 640 902 Q 640 900 635 901 Z M 612 907 L 607 912 L 607 919 L 600 919 L 600 925 L 607 925 L 607 953 L 609 958 L 615 961 L 623 961 L 624 960 L 625 960 L 625 954 L 621 955 L 614 953 L 614 925 L 625 925 L 625 919 L 614 919 L 614 908 L 612 907 Z M 976 907 L 971 912 L 971 919 L 964 919 L 964 925 L 971 925 L 971 955 L 972 957 L 979 961 Q 986 962 989 960 Q 990 955 988 954 L 985 955 L 979 954 L 978 952 L 978 925 L 989 925 L 989 919 L 978 919 L 978 908 L 976 907 Z M 92 918 L 92 979 L 98 979 L 98 979 L 98 960 L 101 961 Q 112 962 119 958 Q 125 954 127 946 Q 130 930 123 923 L 116 918 Q 103 916 99 922 L 98 920 Q 97 917 92 918 Z M 141 918 L 139 920 L 139 960 L 140 960 L 145 960 L 145 938 L 147 931 Q 150 924 159 926 L 160 924 Q 161 919 158 918 L 151 919 L 146 923 L 145 920 Q 144 917 141 918 Z M 177 918 L 173 920 L 167 926 L 164 935 L 164 945 L 167 954 Q 171 959 180 961 Q 191 962 197 959 Q 198 954 196 953 L 188 955 L 177 953 L 174 951 L 171 943 L 172 941 L 200 941 Q 202 930 197 925 Q 193 915 177 918 Z M 248 918 L 244 920 L 238 926 L 235 935 L 235 945 L 238 954 Q 242 959 251 961 Q 261 963 267 959 L 268 959 L 268 953 L 259 955 L 250 954 L 247 952 L 243 947 L 242 942 L 271 941 Q 272 931 269 926 Q 265 915 248 918 Z M 284 918 L 282 920 L 282 960 L 283 960 L 289 960 L 289 934 L 292 928 L 296 926 L 302 926 Q 304 924 303 919 L 301 918 L 294 919 L 290 922 L 288 920 Q 289 916 284 918 Z M 313 918 L 311 920 L 311 960 L 312 960 L 318 960 L 318 934 L 320 930 Q 323 924 331 926 L 332 924 Q 333 919 330 918 L 323 919 L 319 922 L 317 920 Q 318 916 313 918 Z M 349 918 L 345 920 Q 338 925 336 935 L 336 945 L 340 955 Q 345 959 353 961 L 363 961 L 370 959 L 369 953 L 360 955 L 351 954 Q 345 952 344 946 Q 343 941 345 941 L 372 941 Q 374 929 369 924 Q 364 916 349 918 Z M 507 918 L 502 920 Q 496 924 494 932 L 494 948 L 496 953 Q 500 959 510 961 L 520 961 L 527 959 L 526 953 L 517 955 L 507 953 L 501 946 Q 500 941 502 941 L 529 941 Q 531 929 526 924 Q 521 916 507 918 Z M 545 918 L 541 921 L 544 926 L 551 924 L 559 925 L 562 929 L 563 934 L 549 934 L 543 937 L 538 946 L 539 955 Q 542 960 550 961 L 561 961 L 569 959 L 569 928 L 566 922 L 561 918 L 545 918 Z M 691 918 L 685 921 L 679 929 L 677 937 L 678 949 L 681 955 Q 685 960 693 961 Q 704 962 709 959 L 708 954 L 702 954 L 701 955 L 692 954 L 689 952 L 685 948 Q 686 943 684 942 L 686 931 Q 689 926 696 924 L 701 924 L 707 926 Q 709 924 708 919 L 706 918 L 691 918 Z M 723 918 L 719 919 L 720 926 L 728 924 Q 735 923 738 926 L 740 930 L 740 934 L 727 934 L 722 936 L 716 943 L 716 954 L 717 956 L 720 958 L 728 961 L 739 961 L 747 959 L 747 927 L 745 923 L 739 918 L 723 918 Z M 760 918 L 759 921 L 759 959 L 761 960 L 767 960 L 767 934 L 769 930 Q 772 924 780 926 Q 782 920 779 918 L 770 920 Q 768 924 766 921 L 766 918 L 760 918 Z M 798 918 L 794 920 Q 786 924 785 935 L 785 945 L 788 954 Q 793 959 802 961 L 812 961 L 819 959 L 818 953 L 809 955 L 800 954 Q 794 952 793 946 Q 792 941 794 941 L 821 941 Q 823 928 817 923 Q 812 916 798 918 Z M 853 918 L 851 920 L 851 978 L 853 979 Q 858 980 858 979 L 858 960 L 861 961 L 871 961 L 882 956 L 887 948 L 888 943 L 888 934 L 884 924 L 877 918 Q 863 916 859 922 L 858 920 Q 857 917 853 918 Z M 904 918 L 900 919 Q 898 924 902 926 L 909 924 Q 916 923 919 926 L 920 934 Q 909 932 903 936 Q 897 938 896 945 L 897 955 Q 900 960 908 961 L 919 961 L 928 959 L 928 930 L 926 924 L 919 918 L 904 918 Z M 942 918 L 940 920 L 940 960 L 941 960 L 947 960 L 947 936 L 949 931 L 955 926 Q 960 927 961 925 Q 962 919 960 918 L 953 919 L 948 923 L 947 920 Q 946 917 942 918 Z M 999 918 L 997 920 L 997 960 L 998 960 L 1004 960 L 1004 938 L 1007 930 Q 1010 925 1017 924 L 1020 925 L 1022 928 L 1024 934 L 1024 960 L 1025 960 L 1031 960 L 1031 930 L 1029 924 L 1023 918 Q 1009 916 1005 923 L 1004 920 Q 1003 917 999 918 Z M 1054 918 L 1050 920 Q 1043 924 1041 934 Q 1039 947 1044 954 Q 1048 959 1057 961 L 1068 961 L 1075 959 L 1074 953 L 1065 955 L 1056 954 L 1053 952 L 1049 947 Q 1048 941 1050 941 L 1077 941 Q 1078 931 1075 926 Q 1071 915 1054 918 Z M 1090 918 L 1088 920 L 1088 960 L 1089 960 L 1095 960 L 1095 935 L 1097 930 Q 1100 924 1108 926 L 1109 924 L 1107 918 L 1100 919 L 1096 922 L 1094 920 Q 1095 916 1090 918 Z M 1024 1010 L 1020 1012 L 1015 1018 L 1005 1041 L 995 1058 L 993 1059 L 990 1056 L 990 1046 L 989 1045 L 988 1033 L 984 1026 L 978 1027 Q 971 1036 968 1049 L 967 1054 L 967 1073 L 954 1080 Q 938 1091 933 1114 L 933 1133 Q 936 1146 943 1156 Q 956 1173 983 1177 L 994 1177 L 1005 1175 L 1025 1165 Q 1034 1159 1037 1148 Q 1041 1150 1050 1149 L 1051 1150 L 1074 1148 L 1090 1142 Q 1094 1140 1093 1134 L 1084 1126 L 1065 1125 L 1060 1124 L 1054 1121 L 1058 1114 L 1096 1085 Q 1105 1079 1109 1068 L 1106 1062 Q 1095 1061 1090 1064 L 1058 1079 Q 1056 1081 1055 1079 L 1060 1066 L 1076 1043 L 1081 1031 Q 1082 1024 1078 1023 L 1069 1024 L 1059 1031 L 1037 1054 L 1030 1060 L 1027 1059 L 1027 1053 L 1030 1041 L 1031 1026 L 1032 1025 L 1032 1020 L 1030 1013 Q 1029 1009 1024 1010 Z M 411 1092 L 408 1095 L 408 1147 L 411 1149 L 417 1148 L 418 1146 L 418 1095 Q 417 1091 411 1092 Z M 428 1092 L 424 1095 L 424 1146 L 427 1149 L 432 1148 Q 436 1146 434 1138 L 437 1136 L 439 1133 L 441 1135 Q 440 1137 443 1136 L 454 1149 Q 459 1150 460 1146 Q 461 1141 458 1141 Q 459 1138 456 1139 L 447 1127 L 448 1123 L 455 1118 L 458 1116 Q 460 1115 459 1110 L 456 1107 L 451 1108 L 448 1112 L 440 1120 L 438 1120 L 435 1125 L 434 1098 L 433 1095 Q 432 1091 428 1092 Z M 688 1092 L 686 1093 L 684 1095 L 684 1111 L 674 1107 Q 664 1107 659 1111 Q 652 1115 651 1126 L 651 1128 L 650 1131 L 655 1143 Q 659 1149 669 1149 L 672 1150 L 677 1148 Q 681 1149 680 1146 L 684 1144 Q 682 1146 687 1149 Q 692 1150 693 1147 L 693 1097 L 692 1095 L 688 1092 Z M 331 1095 Q 327 1096 328 1101 L 334 1104 L 346 1104 L 346 1105 L 346 1147 Q 347 1150 353 1149 L 355 1147 L 355 1106 L 357 1104 L 368 1104 L 374 1101 L 373 1097 L 372 1095 L 331 1095 Z M 595 1095 L 592 1098 L 592 1147 L 596 1149 L 601 1148 L 602 1146 L 602 1098 Q 601 1094 595 1095 Z M 384 1106 L 379 1107 L 371 1112 L 366 1118 L 364 1125 Q 363 1134 367 1139 Q 366 1142 369 1141 L 371 1145 L 380 1149 L 391 1149 L 399 1146 L 403 1140 L 402 1137 L 400 1136 L 397 1136 L 388 1141 L 383 1141 L 377 1138 L 374 1133 L 402 1132 L 404 1130 L 403 1119 L 400 1114 L 394 1109 Q 392 1105 391 1108 L 384 1106 Z M 553 1106 Q 551 1108 547 1107 L 540 1112 L 532 1107 L 522 1107 L 515 1110 L 514 1107 L 510 1107 L 506 1109 L 506 1146 L 507 1148 L 513 1149 L 516 1146 L 516 1123 L 517 1120 L 522 1116 Q 528 1115 530 1117 L 532 1121 L 532 1146 L 537 1149 L 541 1148 L 542 1146 L 542 1125 L 543 1123 L 543 1121 Q 542 1118 545 1119 L 545 1117 L 548 1116 L 556 1117 L 558 1120 L 559 1125 L 559 1147 L 562 1149 L 567 1148 L 568 1146 L 568 1120 L 568 1118 L 564 1111 L 553 1106 Z M 475 1107 L 469 1110 Q 462 1115 459 1123 L 459 1134 L 463 1142 L 472 1148 L 476 1149 Q 489 1151 495 1145 Q 501 1140 503 1132 L 503 1125 L 500 1117 L 491 1108 Q 485 1105 475 1107 Z M 628 1107 L 619 1111 L 617 1108 L 610 1109 L 610 1147 L 613 1149 L 618 1148 L 619 1146 L 619 1122 L 620 1121 Q 619 1118 622 1119 L 625 1116 L 626 1117 Q 627 1115 633 1116 L 637 1121 L 638 1126 L 638 1145 L 637 1147 L 641 1149 Q 646 1150 647 1147 L 647 1122 L 645 1117 L 645 1114 Q 642 1115 643 1113 L 638 1108 L 628 1107 Z M 716 1107 L 711 1108 L 704 1113 Q 698 1117 697 1125 Q 696 1136 701 1142 L 709 1148 L 720 1149 L 721 1150 L 729 1148 L 733 1145 L 740 1136 Q 739 1131 741 1130 L 740 1122 L 737 1117 Q 731 1107 716 1107 Z M 763 1107 L 760 1108 L 757 1109 Q 758 1112 754 1110 L 754 1112 L 753 1109 L 747 1108 L 744 1113 L 744 1144 L 746 1149 L 753 1148 L 754 1144 L 754 1127 L 753 1126 L 755 1121 Q 754 1118 757 1119 L 757 1117 L 759 1117 L 761 1117 L 766 1116 L 768 1116 L 770 1117 L 773 1125 L 773 1148 L 776 1149 Q 780 1150 781 1148 L 781 1119 L 778 1113 L 771 1108 L 769 1108 Q 767 1106 763 1107 Z M 803 1107 L 794 1111 Q 787 1115 785 1125 Q 784 1133 787 1137 L 787 1140 Q 790 1139 789 1142 L 796 1147 L 806 1150 L 817 1148 L 820 1146 L 823 1142 L 822 1137 L 817 1137 L 809 1142 L 802 1141 L 795 1135 L 796 1132 L 823 1132 L 825 1129 L 824 1122 L 824 1120 L 819 1112 Q 816 1113 817 1110 L 811 1108 L 809 1108 Q 807 1106 803 1107 Z M 840 1107 L 834 1109 L 827 1117 Q 826 1123 828 1126 L 835 1130 L 837 1130 L 839 1132 Q 846 1132 849 1136 L 848 1141 L 846 1142 Q 836 1142 832 1137 L 829 1137 L 825 1139 L 826 1144 L 831 1147 L 838 1149 Q 849 1151 854 1146 Q 856 1147 855 1144 L 857 1144 L 859 1138 L 858 1132 Q 854 1126 847 1124 L 839 1122 L 836 1119 Q 838 1114 846 1116 L 848 1116 L 850 1117 L 854 1119 L 858 1116 L 857 1111 L 847 1108 L 845 1108 L 840 1107 Z M 896 1107 L 881 1110 L 880 1113 Q 879 1117 883 1118 L 890 1117 L 893 1116 L 902 1117 Q 904 1118 904 1122 L 905 1123 L 901 1122 L 888 1123 L 886 1123 L 884 1124 L 876 1134 Q 879 1135 877 1141 L 879 1145 L 884 1148 L 893 1150 L 902 1148 L 904 1146 L 908 1149 L 914 1148 L 914 1121 L 911 1114 L 903 1108 L 899 1108 L 896 1107 Z M 866 1108 L 864 1112 L 864 1114 L 864 1144 L 863 1145 L 865 1148 Q 864 1151 870 1149 L 873 1146 L 872 1145 L 872 1113 L 873 1112 Q 872 1107 866 1108 Z M 261 1109 L 261 1147 Q 261 1148 268 1147 L 270 1144 L 274 1147 Q 282 1149 285 1145 L 290 1138 L 289 1126 L 283 1119 Q 274 1117 271 1121 L 269 1121 L 269 1109 L 261 1109 Z M 291 1119 L 301 1146 Q 303 1147 301 1148 L 294 1147 L 292 1153 L 297 1155 L 305 1154 L 308 1150 L 319 1122 L 319 1119 L 313 1119 L 306 1133 L 306 1137 L 305 1136 L 305 1134 L 299 1121 L 299 1119 L 291 1119 Z " /><path fill="rgb(0,0,0)" stroke="rgb(0,0,0)" stroke-width="1" opacity="0" d="M 167.5 709 L 192 773.5 L 143 774 L 148 758.5 L 151 753.5 L 151 750.5 L 155 743.5 L 157 735.5 L 159 733.5 L 159 731.5 L 167.5 709 Z " /><path fill="rgb(0,0,0)" stroke="rgb(0,0,0)" stroke-width="1" opacity="0" d="M 628.5 737 L 635.5 737 L 642.5 739 L 648 742.5 Q 647.3 744.8 649.5 744 L 654 748.5 L 657 754.5 Q 656.4 759.1 659 760.5 L 659 769 L 604.5 769 Q 603.5 769 604 764.5 L 605 761.5 L 607 753.5 L 612 745 Q 614.7 746.1 614 743.5 L 620.5 739 L 628.5 737 Z " /><path fill="rgb(0,0,0)" stroke="rgb(0,0,0)" stroke-width="1" opacity="0" d="M 304.5 738 Q 323.4 735.9 333 742 Q 332.3 745.1 335 744.5 L 335 819 L 321.5 822 L 311.5 822 Q 308.6 819.4 302.5 820 L 291 813 L 285 804.5 L 281 794.5 L 281 792.5 L 280 789.5 L 280 787.5 L 280 767.5 L 281 762.5 L 290 746 L 292 746 L 292 744 L 295 744 Q 293.9 741.3 296.5 742 L 304.5 738 Z " /><path fill="rgb(0,0,0)" stroke="rgb(0,0,0)" stroke-width="1" opacity="0" d="M 751.5 738 L 768.5 738 L 771.5 740 L 773.5 740 L 781 743 L 781 818.5 L 779.5 819 L 767.5 822 L 765.5 822 Q 760.8 823.3 759.5 821 L 757.5 822 L 749.5 820 L 741.5 816 L 738 812.5 Q 738.8 810.3 736.5 811 L 729 798.5 L 726 784.5 L 727 782.5 L 727 780.5 L 726 774.5 L 727 773.5 L 727 765.5 L 729 762.5 L 728 761.5 L 731 756.5 Q 733.8 747.8 740.5 743 L 751.5 738 Z " /><path fill="rgb(0,0,0)" stroke="rgb(0,0,0)" stroke-width="1" opacity="0" d="M 1081.5 780 L 1083 780.5 L 1083 814.5 L 1084 819 L 1079.5 820 L 1077.5 820 L 1068.5 822 L 1054.5 822 Q 1051.6 819.4 1045.5 820 L 1039 815.5 L 1036 810.5 L 1036 808.5 Q 1033.9 795.9 1041.5 793 L 1048.5 789 L 1049.5 790 L 1053.5 788 L 1062.5 785 L 1064.5 785 L 1071.5 784 L 1081.5 780 Z " /><path fill="rgb(0,0,0)" stroke="rgb(0,0,0)" stroke-width="1" opacity="0" d="M 108.5 924 Q 115.8 923.8 118 928.5 L 120 935.5 L 120 941.5 L 115.5 952 L 112.5 954 L 103.5 955 L 98 954 L 98 932.5 L 103.5 926 L 108.5 924 Z " /><path fill="rgb(0,0,0)" stroke="rgb(0,0,0)" stroke-width="1" opacity="0" d="M 181.5 924 Q 188.8 923.8 191 928.5 L 193 935 L 172.5 935 L 172 931.5 L 176.5 926 L 181.5 924 Z " /><path fill="rgb(0,0,0)" stroke="rgb(0,0,0)" stroke-width="1" opacity="0" d="M 252.5 924 Q 259.8 923.8 262 928.5 L 264 935 L 243.5 935 L 243 932.5 L 247.5 926 L 252.5 924 Z " /><path fill="rgb(0,0,0)" stroke="rgb(0,0,0)" stroke-width="1" opacity="0" d="M 352.5 924 Q 361.4 923.6 364 929.5 L 365 935 L 344.5 935 L 344 933.5 Q 345.4 927.4 350.5 925 L 352.5 924 Z " /><path fill="rgb(0,0,0)" stroke="rgb(0,0,0)" stroke-width="1" opacity="0" d="M 400.5 924 L 408.5 925 L 410 926.5 L 410 953.5 Q 410 954.5 405.5 954 L 400.5 955 L 392 952 L 389 946.5 L 388 938.5 L 389 933.5 L 393.5 927 L 400.5 924 Z " /><path fill="rgb(0,0,0)" stroke="rgb(0,0,0)" stroke-width="1" opacity="0" d="M 510.5 924 Q 516.7 923.4 519 926 L 522 931.5 L 522 935 L 501.5 935 L 501 933.5 L 507.5 925 L 510.5 924 Z " /><path fill="rgb(0,0,0)" stroke="rgb(0,0,0)" stroke-width="1" opacity="0" d="M 801.5 924 L 805.5 924 L 812 928.5 L 814 935 L 793.5 935 L 793 933.5 L 797.5 926 L 801.5 924 Z " /><path fill="rgb(0,0,0)" stroke="rgb(0,0,0)" stroke-width="1" opacity="0" d="M 868.5 924 Q 875.8 923.8 878 928.5 Q 881.8 933.2 880 943.5 Q 878.2 950.7 872.5 954 L 863.5 955 L 858 954 L 859 931.5 L 863.5 926 L 868.5 924 Z " /><path fill="rgb(0,0,0)" stroke="rgb(0,0,0)" stroke-width="1" opacity="0" d="M 1057.5 924 L 1061.5 924 L 1068 928.5 L 1070 935 L 1049.5 935 L 1049 932.5 L 1053.5 926 L 1057.5 924 Z " /><path fill="rgb(0,0,0)" stroke="rgb(0,0,0)" stroke-width="1" opacity="0" d="M 553.5 940 Q 559.9 939.1 563 941.5 L 562 942.5 L 562 952.5 L 562.5 954 L 552.5 955 L 545 951.5 Q 543.5 943.5 548.5 942 L 553.5 940 Z " /><path fill="rgb(0,0,0)" stroke="rgb(0,0,0)" stroke-width="1" opacity="0" d="M 731.5 940 Q 737.6 939.3 740 941 L 740 953.5 L 736.5 954 Q 735 956.5 729.5 955 L 723 950.5 L 723 945.5 L 727.5 941 L 731.5 940 Z " /><path fill="rgb(0,0,0)" stroke="rgb(0,0,0)" stroke-width="1" opacity="0" d="M 912.5 940 Q 918.5 938.5 920 941.5 L 920 953.5 L 917.5 954 Q 916 956.5 910.5 955 L 906.5 954 L 904 951.5 L 903 946.5 L 906.5 942 L 912.5 940 Z " /><path fill="rgb(0,0,0)" stroke="rgb(0,0,0)" stroke-width="1" opacity="0" d="M 984.5 1071 L 1000.5 1072 L 1010.5 1075 Q 1021.3 1080.3 1029 1088.5 Q 1037.6 1096.9 1041 1110.5 L 1042 1115.5 L 1042 1130.5 L 1037 1146 L 1016 1140 L 1021 1128.5 L 1021 1113.5 Q 1017.5 1099 1006.5 1092 Q 997.2 1084.8 979.5 1086 L 972 1088 L 969 1074 L 984.5 1071 Z " /><path fill="rgb(0,0,0)" stroke="rgb(0,0,0)" stroke-width="1" opacity="0" d="M 970.5 1091 Q 979 1113 994.5 1128 L 1012 1140.5 L 1009.5 1144 Q 1002.7 1150.2 992.5 1153 L 978.5 1153 Q 964.2 1149.8 957 1139.5 L 951 1126.5 L 951 1114.5 Q 954.4 1101.9 963.5 1095 L 970.5 1091 Z " /><path fill="rgb(0,0,0)" stroke="rgb(0,0,0)" stroke-width="1" opacity="0" d="M 384.5 1115 L 388.5 1116 L 393 1119.5 L 394 1124 L 374 1123.5 L 378.5 1117 L 384.5 1115 Z " /><path fill="rgb(0,0,0)" stroke="rgb(0,0,0)" stroke-width="1" opacity="0" d="M 804.5 1115 L 813 1118 L 816 1124.5 L 795 1125 Q 795.3 1118.6 800.5 1116 L 804.5 1115 Z " /><path fill="rgb(0,0,0)" stroke="rgb(0,0,0)" stroke-width="1" opacity="0" d="M 477.5 1116 Q 484.5 1115.3 488 1117 Q 486.9 1119.7 489.5 1119 Q 494.4 1122.1 493 1131.5 L 487.5 1139 L 482.5 1141 L 480.5 1141 Q 473.1 1139.9 470 1134.5 L 469 1126.5 L 470 1123.5 L 470 1121.5 L 474.5 1117 L 477.5 1116 Z " /><path fill="rgb(0,0,0)" stroke="rgb(0,0,0)" stroke-width="1" opacity="0" d="M 667.5 1116 Q 678.6 1114.4 682 1120.5 L 684 1125.5 L 684 1127.5 Q 684 1134.8 681 1138 L 670.5 1142 Q 664 1140.5 661 1135.5 L 659 1127.5 L 663 1118 Q 666.4 1118.8 667.5 1116 Z " /><path fill="rgb(0,0,0)" stroke="rgb(0,0,0)" stroke-width="1" opacity="0" d="M 713 1116 L 722.5 1116 L 730 1121.5 L 731 1124.5 L 731 1126.5 Q 732.1 1136.2 726.5 1139 Q 723.5 1142 717.5 1142 L 708 1136.5 Q 705.4 1133.6 706 1127.5 L 706 1125.5 L 709 1119 L 713 1118 L 713 1116 Z " /><path fill="rgb(0,0,0)" stroke="rgb(0,0,0)" stroke-width="1" opacity="0" d="M 275.5 1125 L 280 1126 L 283 1132.5 L 280 1140 L 274.5 1141 L 270 1137.5 L 269 1130.5 L 272.5 1126 L 275.5 1125 Z " /><path fill="rgb(0,0,0)" stroke="rgb(0,0,0)" stroke-width="1" opacity="0" d="M 890.5 1130 L 900.5 1130 L 901.5 1131 L 903.5 1131 Q 906.5 1130.1 905 1134.5 L 903 1139 L 897.5 1142 L 891.5 1142 L 886 1137.5 Q 885 1132 888.5 1131 L 890.5 1130 Z " /><path fill="rgb(187,45,52)" stroke="rgb(187,45,52)" stroke-width="1" opacity="0.9568627450980393" d="M 612.5 105 Q 627.7 103.8 633 112.5 L 639 122.5 L 656 164.5 L 661 180.5 L 681 227.5 L 684 238.5 L 704 285.5 L 707 296.5 L 728 346.5 L 730 354.5 L 751 404.5 L 754 415.5 L 770 452.5 L 777 473.5 L 798 523.5 L 802 536.5 L 821 581.5 L 824 592.5 L 832 612 L 820.5 617 L 780 548.5 L 774 535.5 L 689 388.5 L 680 370.5 L 659 335.5 L 658 331.5 L 639 300.5 L 634 289.5 L 624.5 278 Q 621.9 274.1 614.5 275 L 609 278.5 L 602 290.5 L 596 306.5 L 584 344.5 Q 568.5 381.2 557 421 L 571.5 418 L 590.5 417 L 591.5 416 L 645.5 416 L 646.5 417 L 661.5 417 L 662.5 418 L 687 419 L 685.5 422 L 678.5 423 L 662.5 429 L 629.5 446 L 598.5 467 L 563 496.5 L 561.5 499 L 521.5 537 L 520 537 L 506.5 553 L 503 555.5 L 500.5 559 Q 498.3 558.3 499 560.5 L 466.5 596 Q 464.3 595.3 465 597.5 L 439.5 625 L 427.5 634 L 416.5 635 Q 407.3 633.3 403 626.5 Q 400.1 622.9 401 615.5 L 422 564.5 L 438 520.5 L 444 508.5 L 448 494.5 L 450 492.5 L 450 489.5 L 455 476.5 L 470 441.5 L 473 430.5 L 490 390.5 L 496 374.5 L 496 371.5 L 515 326.5 L 521 307.5 L 540 262.5 L 544 248.5 L 565 198.5 L 565 195.5 L 588 139.5 L 591 128.5 Q 594.8 116.3 603.5 109 L 612.5 105 Z " /><path fill="rgb(187,45,52)" stroke="rgb(187,45,52)" stroke-width="1" opacity="0.9568627450980393" d="M 842.5 629 Q 855.9 627.1 863.5 631 L 877 642.5 Q 882.9 650.1 881 665.5 Q 877.9 676.4 869.5 682 Q 861.5 689 845.5 688 Q 831.8 685.8 825 676.5 L 820 664.5 L 820 652.5 Q 823 639.5 832.5 633 L 842.5 629 Z " /><path fill="rgb(187,45,52)" stroke="rgb(187,45,52)" stroke-width="1" opacity="0.9568627450980393" d="M 1024.5 1010 L 1030 1012.5 L 1032 1022.5 L 1031 1023.5 L 1031 1033.5 L 1027 1052.5 L 1027 1058.5 L 1029.5 1060 L 1042 1048.5 L 1056.5 1033 L 1068.5 1024 L 1077.5 1023 Q 1080.8 1024.8 1081 1029.5 L 1077 1040.5 L 1060 1065.5 L 1055 1078.5 Q 1056.3 1081.3 1057.5 1079 L 1092.5 1063 L 1104.5 1062 L 1108 1064.5 L 1107 1072.5 L 1096.5 1084 L 1066.5 1106 L 1056 1115.5 L 1054 1120.5 L 1056.5 1123 L 1064.5 1125 L 1082.5 1126 Q 1089 1127.5 1092 1132.5 L 1093 1137.5 L 1090.5 1141 L 1073.5 1148 L 1051.5 1150 L 1050.5 1149 Q 1041.5 1150 1037 1148 L 1037 1144.5 L 1042 1131.5 L 1042 1114.5 L 1035 1095.5 L 1024.5 1084 Q 1016.5 1076.5 1004.5 1073 L 993.5 1071 L 982.5 1071 L 968.5 1074 L 967 1072.5 L 967 1054.5 L 972 1037.5 L 979.5 1027 L 983.5 1026 L 988 1032.5 L 990 1056.5 L 992.5 1059 L 997 1055.5 L 1018 1013 L 1024.5 1010 Z " /><path fill="rgb(187,45,52)" stroke="rgb(187,45,52)" stroke-width="1" opacity="0.9568627450980393" d="M 980.5 1086 L 990.5 1086 L 998.5 1088 Q 1008.8 1092.2 1015 1100.5 Q 1023.4 1109.1 1021 1128.5 L 1016 1140 L 1011.5 1140 L 1000.5 1133 L 988 1120.5 Q 976.7 1108.3 971 1090.5 L 972 1088 L 980.5 1086 Z " /><path fill="rgb(114,113,113)" stroke="rgb(114,113,113)" stroke-width="1" opacity="0.7294117647058823" d="M 610.5 277 L 609.5 279 L 610.5 277 Z " /><path fill="rgb(114,113,113)" stroke="rgb(114,113,113)" stroke-width="1" opacity="0.7294117647058823" d="M 624.5 278 L 625.5 280 L 624.5 278 Z " /><path fill="rgb(114,113,113)" stroke="rgb(114,113,113)" stroke-width="1" opacity="0.7294117647058823" d="M 662.5 417 L 666 417.5 L 662.5 418 L 662.5 417 Z " /><path fill="rgb(114,113,113)" stroke="rgb(114,113,113)" stroke-width="1" opacity="0.7294117647058823" d="M 564.5 495 L 563.5 497 L 564.5 495 Z " /><path fill="rgb(114,113,113)" stroke="rgb(114,113,113)" stroke-width="1" opacity="0.7294117647058823" d="M 560.5 499 L 558.5 502 L 560.5 499 Z " /><path fill="rgb(114,113,113)" stroke="rgb(114,113,113)" stroke-width="1" opacity="0.7294117647058823" d="M 548.5 510 L 547.5 512 L 548.5 510 Z " /><path fill="rgb(114,113,113)" stroke="rgb(114,113,113)" stroke-width="1" opacity="0.7294117647058823" d="M 512.5 546 L 509.5 550 L 512.5 546 Z " /><path fill="rgb(114,113,113)" stroke="rgb(114,113,113)" stroke-width="1" opacity="0.7294117647058823" d="M 492.5 567 L 491.5 569 L 492.5 567 Z " /><path fill="rgb(114,113,113)" stroke="rgb(114,113,113)" stroke-width="1" opacity="0.7294117647058823" d="M 483.5 577 L 478.5 583 L 483.5 577 Z " /><path fill="rgb(114,113,113)" stroke="rgb(114,113,113)" stroke-width="1" opacity="0.7294117647058823" d="M 475.5 585 L 474.5 587 L 475.5 585 Z " /><path fill="rgb(114,113,113)" stroke="rgb(114,113,113)" stroke-width="1" opacity="0.7294117647058823" d="M 462.5 600 L 457.5 606 L 462.5 600 Z " /><path fill="rgb(114,113,113)" stroke="rgb(114,113,113)" stroke-width="1" opacity="0.7294117647058823" d="M 453.5 609 L 452.5 611 L 453.5 609 Z " /><path fill="rgb(114,113,113)" stroke="rgb(114,113,113)" stroke-width="1" opacity="0.7294117647058823" d="M 446.5 617 L 444.5 620 L 446.5 617 Z " /><path fill="rgb(114,113,113)" stroke="rgb(114,113,113)" stroke-width="1" opacity="0.7294117647058823" d="M 438.5 625 L 436.5 628 L 438.5 625 Z " /><path fill="rgb(114,113,113)" stroke="rgb(114,113,113)" stroke-width="1" opacity="0.7294117647058823" d="M 829.5 635 L 826.5 639 L 829.5 635 Z " /><path fill="rgb(114,113,113)" stroke="rgb(114,113,113)" stroke-width="1" opacity="0.7294117647058823" d="M 527.5 703 L 528 837.5 L 527 837.5 L 527.5 703 Z " /><path fill="rgb(114,113,113)" stroke="rgb(114,113,113)" stroke-width="1" opacity="0.7294117647058823" d="M 957.5 725 L 955.5 728 L 957.5 725 Z " /><path fill="rgb(114,113,113)" stroke="rgb(114,113,113)" stroke-width="1" opacity="0.7294117647058823" d="M 1094.5 725 L 1095.5 727 L 1094.5 725 Z " /><path fill="rgb(114,113,113)" stroke="rgb(114,113,113)" stroke-width="1" opacity="0.7294117647058823" d="M 983.5 731 L 982.5 733 L 983.5 731 Z " /><path fill="rgb(114,113,113)" stroke="rgb(114,113,113)" stroke-width="1" opacity="0.7294117647058823" d="M 269.5 733 L 268.5 735 L 269.5 733 Z " /><path fill="rgb(114,113,113)" stroke="rgb(114,113,113)" stroke-width="1" opacity="0.7294117647058823" d="M 716.5 733 L 715.5 735 L 716.5 733 Z " /><path fill="rgb(114,113,113)" stroke="rgb(114,113,113)" stroke-width="1" opacity="0.7294117647058823" d="M 671.5 735 L 672.5 737 L 671.5 735 Z " /><path fill="rgb(114,113,113)" stroke="rgb(114,113,113)" stroke-width="1" opacity="0.7294117647058823" d="M 942.5 740 L 941.5 742 L 942.5 740 Z " /><path fill="rgb(114,113,113)" stroke="rgb(114,113,113)" stroke-width="1" opacity="0.7294117647058823" d="M 973.5 740 L 972.5 742 L 973.5 740 Z " /><path fill="rgb(114,113,113)" stroke="rgb(114,113,113)" stroke-width="1" opacity="0.7294117647058823" d="M 289.5 747 L 288.5 749 L 289.5 747 Z " /><path fill="rgb(114,113,113)" stroke="rgb(114,113,113)" stroke-width="1" opacity="0.7294117647058823" d="M 931.5 750 L 930.5 752 L 931.5 750 Z " /><path fill="rgb(114,113,113)" stroke="rgb(114,113,113)" stroke-width="1" opacity="0.7294117647058823" d="M 954.5 757 L 953.5 759 L 954.5 757 Z " /><path fill="rgb(114,113,113)" stroke="rgb(114,113,113)" stroke-width="1" opacity="0.7294117647058823" d="M 945.5 765 L 944.5 767 L 945.5 765 Z " /><path fill="rgb(114,113,113)" stroke="rgb(114,113,113)" stroke-width="1" opacity="0.7294117647058823" d="M 494.5 769 L 494 770.5 L 493.5 772 L 493 770.5 L 494.5 769 Z " /><path fill="rgb(114,113,113)" stroke="rgb(114,113,113)" stroke-width="1" opacity="0.7294117647058823" d="M 726.5 777 L 727 780.5 L 726 780.5 L 726.5 777 Z " /><path fill="rgb(114,113,113)" stroke="rgb(114,113,113)" stroke-width="1" opacity="0.7294117647058823" d="M 1082.5 779 L 1084 779.5 L 1084 814.5 L 1083 814.5 L 1083 780.5 L 1082.5 779 Z " /><path fill="rgb(114,113,113)" stroke="rgb(114,113,113)" stroke-width="1" opacity="0.7294117647058823" d="M 1020.5 781 L 1018.5 784 L 1020.5 781 Z " /><path fill="rgb(114,113,113)" stroke="rgb(114,113,113)" stroke-width="1" opacity="0.7294117647058823" d="M 946.5 810 L 947.5 812 L 946.5 810 Z " /><path fill="rgb(114,113,113)" stroke="rgb(114,113,113)" stroke-width="1" opacity="0.7294117647058823" d="M 261.5 811 L 262.5 813 L 261.5 811 Z " /><path fill="rgb(114,113,113)" stroke="rgb(114,113,113)" stroke-width="1" opacity="0.7294117647058823" d="M 666.5 816 L 669 817.5 L 667.5 817 L 666.5 816 Z " /><path fill="rgb(114,113,113)" stroke="rgb(114,113,113)" stroke-width="1" opacity="0.7294117647058823" d="M 981.5 816 L 982.5 818 L 981.5 816 Z " /><path fill="rgb(114,113,113)" stroke="rgb(114,113,113)" stroke-width="1" opacity="0.7294117647058823" d="M 265.5 817 L 266.5 819 L 265.5 817 Z " /><path fill="rgb(114,113,113)" stroke="rgb(114,113,113)" stroke-width="1" opacity="0.7294117647058823" d="M 272.5 825 L 273.5 827 L 272.5 825 Z " /><path fill="rgb(114,113,113)" stroke="rgb(114,113,113)" stroke-width="1" opacity="0.7294117647058823" d="M 94.5 839 L 116 839.5 L 94.5 840 L 94.5 839 Z " /><path fill="rgb(114,113,113)" stroke="rgb(114,113,113)" stroke-width="1" opacity="0.7294117647058823" d="M 220.5 839 L 241 839.5 L 220.5 840 L 220.5 839 Z " /><path fill="rgb(114,113,113)" stroke="rgb(114,113,113)" stroke-width="1" opacity="0.7294117647058823" d="M 393.5 839 L 412 839.5 L 393.5 840 L 393.5 839 Z " /><path fill="rgb(114,113,113)" stroke="rgb(114,113,113)" stroke-width="1" opacity="0.7294117647058823" d="M 530.5 839 L 549 839.5 L 530.5 840 L 530.5 839 Z " /><path fill="rgb(114,113,113)" stroke="rgb(114,113,113)" stroke-width="1" opacity="0.7294117647058823" d="M 899.5 839 L 919 839.5 L 899.5 840 L 899.5 839 Z " /><path fill="rgb(114,113,113)" stroke="rgb(114,113,113)" stroke-width="1" opacity="0.7294117647058823" d="M 975.5 839 L 998 839.5 L 975.5 840 L 975.5 839 Z " /><path fill="rgb(114,113,113)" stroke="rgb(114,113,113)" stroke-width="1" opacity="0.7294117647058823" d="M 221.5 901 L 233.5 901 L 234 904.5 L 231.5 908 L 225.5 907 L 221 909.5 L 220 919 L 231 919 L 231 925 L 220 925 L 220 959.5 L 219.5 960 L 213 960 L 213 925.5 L 212.5 925 L 206 925 L 206 919 L 213 919 L 213 909.5 L 217.5 903 L 221.5 901 Z " /><path fill="rgb(114,113,113)" stroke="rgb(114,113,113)" stroke-width="1" opacity="0.7294117647058823" d="M 410 901 L 416.5 901 L 417 901.5 L 417 959 L 408.5 961 L 397.5 961 L 390.5 959 L 384 953.5 Q 379.2 947.3 381 934.5 Q 383 924.5 390.5 920 L 395.5 918 L 410 918 L 410 901 Z M 401 924 L 394 927 L 389 934 L 388 939 L 389 947 L 392 952 L 401 955 L 406 954 Q 410 954 410 954 L 410 927 L 409 925 L 401 924 Z " /><path fill="rgb(114,113,113)" stroke="rgb(114,113,113)" stroke-width="1" opacity="0.7294117647058823" d="M 450.5 901 Q 456.8 900.3 457 901.5 L 457 921.5 L 458.5 921 Q 462.9 915.9 474.5 918 L 481 923.5 L 483 927.5 L 483 960 L 476.5 960 L 476 959.5 L 476 931.5 L 471.5 925 L 468.5 924 Q 461.9 924.9 459 929.5 L 457 933.5 L 457 960 L 449.5 960 L 449 959.5 L 449 902.5 L 450.5 901 Z " /><path fill="rgb(114,113,113)" stroke="rgb(114,113,113)" stroke-width="1" opacity="0.7294117647058823" d="M 582 901 L 588.5 901 L 589 901.5 L 589 952.5 Q 589.5 955.5 593.5 955 L 595.5 954 L 598 960 L 589.5 961 L 583 956.5 L 582 954.5 L 582 901 Z " /><path fill="rgb(114,113,113)" stroke="rgb(114,113,113)" stroke-width="1" opacity="0.7294117647058823" d="M 634.5 901 Q 639.9 900.4 640 901.5 L 640 922.5 L 643.5 920 Q 647.8 916.3 657.5 918 L 664 922.5 L 667 933.5 L 667 960 L 659.5 960 L 659 959.5 L 659 928.5 Q 657.3 923.3 648.5 925 L 642 930.5 L 640 934.5 L 640 960 L 633.5 960 L 633 959.5 L 633 902.5 L 634.5 901 Z " /><path fill="rgb(114,113,113)" stroke="rgb(114,113,113)" stroke-width="1" opacity="0.7294117647058823" d="M 611.5 907 L 614 907.5 L 614 919 L 625 919 L 625 925 L 614 925 L 614 952.5 L 620.5 955 L 625 954 L 625 959.5 L 623.5 960 L 622.5 961 L 614.5 961 L 609 957.5 L 607 952.5 L 607 925 L 600 925 L 600 919 L 607 919 L 607 911.5 L 611.5 907 Z " /><path fill="rgb(114,113,113)" stroke="rgb(114,113,113)" stroke-width="1" opacity="0.7294117647058823" d="M 975.5 907 L 978 907.5 L 978 919 L 989 919 L 989 925 L 978 925 L 978 951.5 L 979 954 L 984.5 955 L 987.5 954 Q 990.3 955.4 989 960 Q 986 962 978.5 961 L 972 956.5 L 971 954.5 L 971 925 L 964 925 L 964 919 L 971 919 L 971 911.5 L 975.5 907 Z " /><path fill="rgb(114,113,113)" stroke="rgb(114,113,113)" stroke-width="1" opacity="0.7294117647058823" d="M 92 918 Q 96.6 916.8 98 919.5 L 98.5 922 Q 102.8 915.8 115.5 918 L 123 922.5 Q 129.5 929.5 127 945.5 Q 124.9 953.9 118.5 958 Q 112.4 962.4 100.5 961 L 98 960 L 98 978.5 L 97.5 979 L 92 979 L 92 918 Z M 109 924 L 104 926 L 98 933 L 98 954 L 104 955 L 113 954 L 116 952 L 120 942 L 120 936 L 118 929 Q 116 924 109 924 Z " /><path fill="rgb(114,113,113)" stroke="rgb(114,113,113)" stroke-width="1" opacity="0.7294117647058823" d="M 140.5 918 Q 144.3 917.3 145 919.5 L 145.5 923 L 150.5 919 L 157.5 918 Q 160.8 918.8 160 923.5 L 159 926 Q 149.8 924.4 147 930.5 L 145 937.5 L 145 960 L 139.5 960 L 139 959.5 L 139 919.5 L 140.5 918 Z " /><path fill="rgb(114,113,113)" stroke="rgb(114,113,113)" stroke-width="1" opacity="0.7294117647058823" d="M 176.5 918 Q 192.6 915.4 197 924.5 Q 201.5 930.3 200 941 L 171.5 941 L 171 942.5 L 174 950.5 L 176.5 953 L 187.5 955 L 195.5 953 Q 198.3 954.4 197 959 Q 191 962.2 179.5 961 Q 171.2 959.3 167 953.5 L 164 944.5 L 164 934.5 L 167 925.5 L 172.5 920 L 176.5 918 Z M 182 924 L 177 926 L 172 932 L 173 935 L 193 935 L 191 929 Q 189 924 182 924 Z " /><path fill="rgb(114,113,113)" stroke="rgb(114,113,113)" stroke-width="1" opacity="0.7294117647058823" d="M 247.5 918 Q 264.6 915.4 269 925.5 Q 272.3 931.5 271 941 L 242 941.5 L 243 946.5 L 246.5 952 L 249.5 954 L 258.5 955 L 268 953 L 268 958.5 L 266.5 959 Q 261.1 962.6 250.5 961 Q 242.2 959.3 238 953.5 L 235 944.5 L 235 934.5 L 238 925.5 L 243.5 920 L 247.5 918 Z M 253 924 L 248 926 L 243 933 L 244 935 L 264 935 L 262 929 Q 260 924 253 924 Z " /><path fill="rgb(114,113,113)" stroke="rgb(114,113,113)" stroke-width="1" opacity="0.7294117647058823" d="M 283.5 918 Q 288.9 916.1 288 919.5 L 289.5 922 L 293.5 919 L 300.5 918 L 303 919 Q 304.5 924.4 301.5 926 L 295.5 926 L 292 928 L 289 933.5 L 289 960 L 282.5 960 L 282 959.5 L 282 919.5 L 283.5 918 Z " /><path fill="rgb(114,113,113)" stroke="rgb(114,113,113)" stroke-width="1" opacity="0.7294117647058823" d="M 312.5 918 Q 317.9 916.1 317 919.5 L 318.5 922 L 322.5 919 L 329.5 918 Q 332.8 918.8 332 923.5 L 331 926 Q 322.8 924.5 320 929.5 L 318 933.5 L 318 960 L 311.5 960 L 311 959.5 L 311 919.5 L 312.5 918 Z " /><path fill="rgb(114,113,113)" stroke="rgb(114,113,113)" stroke-width="1" opacity="0.7294117647058823" d="M 348.5 918 Q 363.9 915.6 369 923.5 Q 374 929.2 372 941 L 344.5 941 Q 343.5 941 344 945.5 Q 345.4 951.6 350.5 954 L 359.5 955 L 369 953 L 370 959 L 362.5 961 L 352.5 961 Q 344.7 959.3 340 954.5 L 336 944.5 L 336 934.5 Q 337.8 924.8 344.5 920 L 348.5 918 Z M 353 924 L 351 925 Q 345 927 344 934 L 345 935 L 365 935 L 364 930 Q 361 924 353 924 Z " /><path fill="rgb(114,113,113)" stroke="rgb(114,113,113)" stroke-width="1" opacity="0.7294117647058823" d="M 506.5 918 Q 521.2 915.8 526 923.5 Q 531 929.2 529 941 L 501.5 941 Q 500.5 941 501 945.5 L 506.5 953 L 516.5 955 L 526 953 L 527 959 L 519.5 961 L 509.5 961 Q 500.3 959.3 496 952.5 L 494 947.5 L 494 931.5 Q 495.9 923.9 501.5 920 L 506.5 918 Z M 511 924 L 508 925 L 501 934 L 502 935 L 522 935 L 522 932 L 519 926 Q 517 923 511 924 Z " /><path fill="rgb(114,113,113)" stroke="rgb(114,113,113)" stroke-width="1" opacity="0.7294117647058823" d="M 544.5 918 L 560.5 918 L 566 921.5 L 569 927.5 L 569 959 L 560.5 961 L 549.5 961 Q 542.1 959.9 539 954.5 L 538 945.5 L 542.5 937 L 548.5 934 L 563 933.5 L 562 928.5 L 558.5 925 L 550.5 924 L 543.5 926 L 541 920.5 L 544.5 918 Z M 554 940 L 549 942 Q 544 944 545 952 L 553 955 L 563 954 L 562 953 L 562 943 L 563 942 Q 560 939 554 940 Z " /><path fill="rgb(114,113,113)" stroke="rgb(114,113,113)" stroke-width="1" opacity="0.7294117647058823" d="M 690.5 918 L 705.5 918 L 708 919 Q 708.9 923.7 706.5 926 L 700.5 924 L 695.5 924 Q 689 925.5 686 930.5 L 684 941.5 Q 686.2 942.7 685 947.5 L 688.5 952 L 691.5 954 L 700.5 955 L 701.5 954 L 708 954 L 709 959 Q 703.7 962.4 692.5 961 Q 684.7 959.8 681 954.5 L 678 948.5 L 677 936.5 L 679 928.5 L 684.5 921 L 690.5 918 Z " /><path fill="rgb(114,113,113)" stroke="rgb(114,113,113)" stroke-width="1" opacity="0.7294117647058823" d="M 722.5 918 L 738.5 918 L 745 922.5 L 747 926.5 L 747 959 L 738.5 961 L 727.5 961 L 719.5 958 L 717 955.5 L 716 953.5 L 716 942.5 L 721.5 936 L 726.5 934 L 740 934 L 740 929.5 L 738 926 Q 735.1 923.1 727.5 924 L 720 926 L 719 919 L 722.5 918 Z M 732 940 L 728 941 L 723 946 L 723 951 L 730 955 Q 735 957 737 954 L 740 954 L 740 941 Q 738 939 732 940 Z " /><path fill="rgb(114,113,113)" stroke="rgb(114,113,113)" stroke-width="1" opacity="0.7294117647058823" d="M 760 918 L 766 918 L 766 920.5 Q 767.8 923.8 769.5 920 L 778.5 918 Q 781.8 919.9 780 926 Q 771.8 924.5 769 929.5 L 767 933.5 L 767 960 L 760.5 960 L 759 958.5 L 759 920.5 L 760 918 Z " /><path fill="rgb(114,113,113)" stroke="rgb(114,113,113)" stroke-width="1" opacity="0.7294117647058823" d="M 797.5 918 Q 811.8 915.8 817 922.5 Q 822.8 928.4 821 941 L 793.5 941 Q 792.5 941 793 945.5 Q 794.4 951.6 799.5 954 L 808.5 955 L 818 953 L 819 959 L 811.5 961 L 801.5 961 Q 792.9 959.1 788 953.5 L 785 944.5 L 785 934.5 Q 786.5 924.5 793.5 920 L 797.5 918 Z M 802 924 L 798 926 L 793 934 L 794 935 L 814 935 L 812 929 L 806 924 L 802 924 Z " /><path fill="rgb(114,113,113)" stroke="rgb(114,113,113)" stroke-width="1" opacity="0.7294117647058823" d="M 852.5 918 Q 857 917 858 919.5 L 858.5 922 Q 863.1 915.6 876.5 918 L 884 923.5 L 888 933.5 L 888 942.5 L 887 947.5 L 881.5 956 L 870.5 961 L 860.5 961 L 858 960 L 858 978.5 Q 857.9 979.6 852.5 979 L 851 977.5 L 851 919.5 L 852.5 918 Z M 869 924 L 864 926 L 859 932 L 858 954 L 864 955 L 873 954 Q 878 951 880 944 Q 882 933 878 929 Q 876 924 869 924 Z " /><path fill="rgb(114,113,113)" stroke="rgb(114,113,113)" stroke-width="1" opacity="0.7294117647058823" d="M 903.5 918 L 918.5 918 L 926 923.5 L 928 929.5 L 928 959 L 918.5 961 L 907.5 961 Q 900.1 959.9 897 954.5 L 896 944.5 Q 897.4 938.4 902.5 936 Q 908.8 932.1 920 934 L 919 926 Q 916.1 923.1 908.5 924 L 901.5 926 Q 898.5 924.4 900 919 L 903.5 918 Z M 913 940 L 907 942 L 903 947 L 904 952 L 907 954 L 911 955 Q 916 957 918 954 L 920 954 L 920 942 Q 919 938 913 940 Z " /><path fill="rgb(114,113,113)" stroke="rgb(114,113,113)" stroke-width="1" opacity="0.7294117647058823" d="M 941.5 918 Q 946 917 947 919.5 L 947.5 923 L 952.5 919 L 959.5 918 Q 962.3 919.3 961 924.5 Q 959.8 927.3 954.5 926 L 949 930.5 L 947 935.5 L 947 960 L 940.5 960 L 940 959.5 L 940 919.5 L 941.5 918 Z " /><path fill="rgb(114,113,113)" stroke="rgb(114,113,113)" stroke-width="1" opacity="0.7294117647058823" d="M 998.5 918 Q 1003 917 1004 919.5 L 1004.5 923 Q 1008.7 915.7 1022.5 918 L 1029 923.5 L 1031 929.5 L 1031 960 L 1024.5 960 L 1024 959.5 L 1024 933.5 L 1022 927.5 L 1019.5 925 L 1016.5 924 Q 1009.9 924.9 1007 929.5 L 1004 937.5 L 1004 960 L 997.5 960 L 997 959.5 L 997 919.5 L 998.5 918 Z " /><path fill="rgb(114,113,113)" stroke="rgb(114,113,113)" stroke-width="1" opacity="0.7294117647058823" d="M 1053.5 918 Q 1070.6 915.4 1075 925.5 Q 1078.3 931.5 1077 941 L 1049.5 941 Q 1048.4 941.1 1049 946.5 L 1052.5 952 L 1055.5 954 L 1064.5 955 L 1074 953 L 1075 959 L 1067.5 961 L 1056.5 961 Q 1048.2 959.3 1044 953.5 Q 1039 946.9 1041 933.5 Q 1042.8 924.3 1049.5 920 L 1053.5 918 Z M 1058 924 L 1054 926 L 1049 933 L 1050 935 L 1070 935 L 1068 929 L 1062 924 L 1058 924 Z " /><path fill="rgb(114,113,113)" stroke="rgb(114,113,113)" stroke-width="1" opacity="0.7294117647058823" d="M 1089.5 918 Q 1094.9 916.1 1094 919.5 L 1095.5 922 L 1099.5 919 L 1106.5 918 L 1109 923.5 L 1108 926 Q 1099.8 924.5 1097 929.5 L 1095 934.5 L 1095 960 L 1088.5 960 L 1088 959.5 L 1088 919.5 L 1089.5 918 Z " /><path fill="rgb(114,113,113)" stroke="rgb(114,113,113)" stroke-width="1" opacity="0.7294117647058823" d="M 1058.5 1031 L 1057.5 1033 L 1058.5 1031 Z " /><path fill="rgb(114,113,113)" stroke="rgb(114,113,113)" stroke-width="1" opacity="0.7294117647058823" d="M 989.5 1045 L 990 1047.5 L 989 1047.5 L 989.5 1045 Z " /><path fill="rgb(114,113,113)" stroke="rgb(114,113,113)" stroke-width="1" opacity="0.7294117647058823" d="M 1041.5 1048 L 1037.5 1053 L 1041.5 1048 Z " /><path fill="rgb(114,113,113)" stroke="rgb(114,113,113)" stroke-width="1" opacity="0.7294117647058823" d="M 996.5 1055 L 995.5 1057 L 996.5 1055 Z " /><path fill="rgb(114,113,113)" stroke="rgb(114,113,113)" stroke-width="1" opacity="0.7294117647058823" d="M 966.5 1073 L 969 1074.5 L 972 1089.5 L 958 1100.5 L 951 1114.5 L 951 1126.5 Q 954.5 1140 964.5 1147 L 978.5 1153 L 992.5 1153 Q 1004.7 1149.7 1012 1141.5 Q 1011.4 1138.8 1017.5 1140 L 1037 1146 L 1035 1153.5 L 1024.5 1165 L 1004.5 1175 L 993.5 1177 L 982.5 1177 Q 956.3 1172.7 943 1155.5 Q 936.3 1145.7 933 1132.5 L 933 1113.5 Q 938 1091.5 953.5 1080 L 966.5 1073 Z " /><path fill="rgb(114,113,113)" stroke="rgb(114,113,113)" stroke-width="1" opacity="0.7294117647058823" d="M 1024.5 1084 L 1025.5 1086 L 1024.5 1084 Z " /><path fill="rgb(114,113,113)" stroke="rgb(114,113,113)" stroke-width="1" opacity="0.7294117647058823" d="M 1029.5 1089 L 1030.5 1091 L 1029.5 1089 Z " /><path fill="rgb(114,113,113)" stroke="rgb(114,113,113)" stroke-width="1" opacity="0.7294117647058823" d="M 415.5 1092 L 417.5 1095 L 415.5 1092 Z " /><path fill="rgb(114,113,113)" stroke="rgb(114,113,113)" stroke-width="1" opacity="0.7294117647058823" d="M 333.5 1103 L 346 1103.5 L 333.5 1104 L 333.5 1103 Z " /><path fill="rgb(114,113,113)" stroke="rgb(114,113,113)" stroke-width="1" opacity="0.7294117647058823" d="M 355 1103 L 368 1103.5 L 356.5 1104 L 355.5 1105 L 355 1103 Z " /><path fill="rgb(114,113,113)" stroke="rgb(114,113,113)" stroke-width="1" opacity="0.7294117647058823" d="M 383.5 1106 L 386 1106.5 L 383.5 1107 L 383.5 1106 Z " /><path fill="rgb(114,113,113)" stroke="rgb(114,113,113)" stroke-width="1" opacity="0.7294117647058823" d="M 450.5 1108 L 448.5 1111 L 450.5 1108 Z " /><path fill="rgb(114,113,113)" stroke="rgb(114,113,113)" stroke-width="1" opacity="0.7294117647058823" d="M 562.5 1109 L 563.5 1111 L 562.5 1109 Z " /><path fill="rgb(114,113,113)" stroke="rgb(114,113,113)" stroke-width="1" opacity="0.7294117647058823" d="M 537.5 1110 L 538.5 1112 L 537.5 1110 Z " /><path fill="rgb(114,113,113)" stroke="rgb(114,113,113)" stroke-width="1" opacity="0.7294117647058823" d="M 681.5 1110 L 684 1111.5 L 682.5 1112 L 681.5 1110 Z " /><path fill="rgb(114,113,113)" stroke="rgb(114,113,113)" stroke-width="1" opacity="0.7294117647058823" d="M 744.5 1112 L 745 1143.5 L 744 1143.5 L 744.5 1112 Z " /><path fill="rgb(114,113,113)" stroke="rgb(114,113,113)" stroke-width="1" opacity="0.7294117647058823" d="M 369.5 1113 L 368.5 1115 L 369.5 1113 Z " /><path fill="rgb(114,113,113)" stroke="rgb(114,113,113)" stroke-width="1" opacity="0.7294117647058823" d="M 458.5 1114 L 457.5 1116 L 458.5 1114 Z " /><path fill="rgb(114,113,113)" stroke="rgb(114,113,113)" stroke-width="1" opacity="0.7294117647058823" d="M 1057.5 1114 L 1056.5 1116 L 1057.5 1114 Z " /><path fill="rgb(114,113,113)" stroke="rgb(114,113,113)" stroke-width="1" opacity="0.7294117647058823" d="M 622.5 1117 L 621.5 1119 L 622.5 1117 Z " /><path fill="rgb(114,113,113)" stroke="rgb(114,113,113)" stroke-width="1" opacity="0.7294117647058823" d="M 634.5 1117 L 635.5 1119 L 634.5 1117 Z " /><path fill="rgb(114,113,113)" stroke="rgb(114,113,113)" stroke-width="1" opacity="0.7294117647058823" d="M 986.5 1118 L 987.5 1120 L 986.5 1118 Z " /><path fill="rgb(114,113,113)" stroke="rgb(114,113,113)" stroke-width="1" opacity="0.7294117647058823" d="M 990.5 1123 L 994.5 1128 L 990.5 1123 Z " /><path fill="rgb(114,113,113)" stroke="rgb(114,113,113)" stroke-width="1" opacity="0.7294117647058823" d="M 447.5 1124 L 446.5 1126 L 447.5 1124 Z " /><path fill="rgb(114,113,113)" stroke="rgb(114,113,113)" stroke-width="1" opacity="0.7294117647058823" d="M 753.5 1126 L 754 1143.5 L 753 1143.5 L 753.5 1126 Z " /><path fill="rgb(114,113,113)" stroke="rgb(114,113,113)" stroke-width="1" opacity="0.7294117647058823" d="M 447.5 1127 L 448.5 1129 L 447.5 1127 Z " /><path fill="rgb(114,113,113)" stroke="rgb(114,113,113)" stroke-width="1" opacity="0.7294117647058823" d="M 740.5 1127 L 741 1129.5 L 740 1129.5 L 740.5 1127 Z " /><path fill="rgb(114,113,113)" stroke="rgb(114,113,113)" stroke-width="1" opacity="0.7294117647058823" d="M 796.5 1136 L 799.5 1140 L 796.5 1136 Z " /><path fill="rgb(114,113,113)" stroke="rgb(114,113,113)" stroke-width="1" opacity="0.7294117647058823" d="M 887.5 1139 L 888.5 1141 L 887.5 1139 Z " /><path fill="rgb(114,113,113)" stroke="rgb(114,113,113)" stroke-width="1" opacity="0.7294117647058823" d="M 820.5 1144 L 819.5 1146 L 820.5 1144 Z " /><path fill="rgb(114,113,113)" stroke="rgb(114,113,113)" stroke-width="1" opacity="0.7294117647058823" d="M 592.5 1146 L 593.5 1148 L 592.5 1146 Z " /><path fill="rgb(114,113,113)" stroke="rgb(114,113,113)" stroke-width="1" opacity="0.7294117647058823" d="M 425.5 1147 L 426.5 1149 L 425.5 1147 Z " /><path fill="rgb(114,113,113)" stroke="rgb(114,113,113)" stroke-width="1" opacity="0.7294117647058823" d="M 780.5 1147 L 779.5 1149 L 780.5 1147 Z " /><path fill="rgb(72,69,68)" stroke="rgb(72,69,68)" stroke-width="1" opacity="0.9529411764705882" d="M 157 677 L 180.5 677 L 181 678.5 L 244 839 L 217.5 839 L 217 837.5 L 201 795 L 134.5 795 L 133 796.5 L 117 839 L 92.5 839 L 92 836.5 L 157 677 Z M 168 709 L 142 774 L 192 774 L 188 761 L 168 709 Z " /><path fill="rgb(72,69,68)" stroke="rgb(72,69,68)" stroke-width="1" opacity="0.9529411764705882" d="M 335 677 L 356.5 677 L 357 677.5 L 357 822.5 L 359 832.5 L 358 835 L 348.5 838 L 332.5 841 L 311.5 842 L 310.5 841 L 298.5 840 L 283.5 834 L 267 819.5 Q 259.6 809.9 256 796.5 L 254 775.5 L 255 774.5 L 255 765.5 L 259 750.5 Q 264.4 736.4 275.5 728 L 287.5 721 L 298.5 718 L 318.5 718 L 335 723 L 335 677 Z M 305 738 L 293 744 Q 283 752 280 768 Q 277 799 291 813 L 303 820 L 312 822 L 322 822 L 333 819 L 335 819 L 335 745 Q 326 735 305 738 Z " /><path fill="rgb(72,69,68)" stroke="rgb(72,69,68)" stroke-width="1" opacity="0.9529411764705882" d="M 390 677 L 425.5 677 L 427 678.5 L 471.5 769 L 473 763.5 Q 496.2 721.4 516 677 L 551.5 677 L 552 677.5 L 552 839 L 528.5 839 L 528 838.5 L 528 703.5 L 527 703.5 L 511 737.5 Q 493.9 766.4 480 798.5 L 476.5 803 Q 470.4 803.6 467.5 801 L 459 792.5 L 415.5 705 L 415 839 L 390.5 839 L 390 838.5 L 390 677 Z " /><path fill="rgb(72,69,68)" stroke="rgb(72,69,68)" stroke-width="1" opacity="0.9529411764705882" d="M 782.5 677 L 803.5 677 L 804 677.5 L 804 826.5 Q 806.5 828 805 833.5 L 798.5 837 L 779.5 841 L 757.5 842 L 741.5 839 L 728.5 833 L 713 818.5 L 704 801.5 L 701 786.5 L 701 771.5 Q 703.8 769.8 702 763.5 L 707 747.5 Q 711.3 737.8 718.5 731 Q 726.9 722.4 740.5 719 L 745.5 718 L 765.5 718 L 781 723 L 781 678.5 L 782.5 677 Z M 752 738 L 741 743 Q 733 749 729 759 L 726 774 L 726 785 L 728 796 L 735 810 L 742 816 Q 748 820 758 822 L 770 822 L 780 819 L 781 819 L 781 743 L 769 738 L 752 738 Z " /><path fill="rgb(72,69,68)" stroke="rgb(72,69,68)" stroke-width="1" opacity="0.9529411764705882" d="M 898.5 677 L 919.5 677 L 920 677.5 L 920 761.5 L 935.5 747 L 964.5 720 L 994 720 L 991.5 724 L 939.5 771 L 938 771 Q 936.9 773.7 939.5 773 L 947 778.5 L 1001 838.5 L 972.5 839 L 924.5 785 L 920.5 782 L 920 839 L 898.5 839 L 897 837.5 L 897 678.5 L 898.5 677 Z " /><path fill="rgb(72,69,68)" stroke="rgb(72,69,68)" stroke-width="1" opacity="0.9529411764705882" d="M 860.5 711 L 862 711.5 L 862 840 L 840.5 840 L 839 838.5 L 839 712.5 Q 839.1 711.4 844.5 712 L 845.5 713 L 854.5 713 L 860.5 711 Z " /><path fill="rgb(72,69,68)" stroke="rgb(72,69,68)" stroke-width="1" opacity="0.9529411764705882" d="M 621.5 718 L 641.5 718 L 649.5 720 Q 662.2 724.3 670 733.5 Q 677.5 741.5 681 753.5 L 682 764.5 L 683 765.5 L 683 781.5 L 682 788 L 604.5 788 Q 603.4 788.1 604 793.5 Q 606.7 808.8 617.5 816 L 628.5 821 L 646.5 822 L 667.5 817 L 675 833.5 L 662.5 839 L 652.5 841 L 644.5 841 L 643.5 842 L 632.5 842 L 616.5 839 L 607.5 835 L 592 821.5 L 582 802.5 L 579 788.5 L 579 769.5 L 581 758.5 L 588 741.5 L 600.5 727 Q 609.2 720.7 621.5 718 Z M 629 737 L 621 739 L 616 742 Q 607 749 604 763 Q 603 769 605 769 L 659 769 L 659 761 L 654 749 Q 647 737 629 737 Z " /><path fill="rgb(72,69,68)" stroke="rgb(72,69,68)" stroke-width="1" opacity="0.9529411764705882" d="M 1051.5 718 L 1074.5 718 L 1079.5 719 Q 1093.8 722.3 1101 732.5 L 1106 744.5 L 1106 818.5 L 1107 819.5 L 1108 832.5 L 1106.5 834 L 1088.5 839 L 1067.5 841 L 1066.5 842 L 1054.5 842 L 1033.5 838 Q 1024 834.5 1018 827.5 L 1012 817.5 L 1011 800.5 Q 1013.3 786.8 1022.5 780 L 1032.5 774 L 1044.5 770 L 1049.5 770 L 1074.5 764 L 1082 758.5 Q 1084.7 756.2 1084 750.5 Q 1083.1 743.9 1078.5 741 L 1074.5 739 L 1063.5 737 L 1062.5 738 L 1051.5 738 L 1030.5 745 L 1022 727.5 L 1034.5 722 L 1051.5 718 Z M 1083 779 L 1071 784 L 1052 788 L 1043 792 L 1036 800 Q 1034 810 1038 815 L 1046 820 L 1055 822 L 1069 822 L 1084 819 L 1084 780 L 1083 779 Z " /><path fill="rgb(72,69,68)" stroke="rgb(72,69,68)" stroke-width="1" opacity="0.9529411764705882" d="M 410.5 1092 Q 417 1091 418 1095.5 L 418 1145.5 L 415.5 1148 L 411.5 1149 L 408 1146.5 L 408 1094.5 L 410.5 1092 Z " /><path fill="rgb(72,69,68)" stroke="rgb(72,69,68)" stroke-width="1" opacity="0.9529411764705882" d="M 427.5 1092 Q 432.3 1091.3 433 1094.5 L 434 1097.5 L 434.5 1125 L 451.5 1108 L 455.5 1107 L 459 1109.5 L 459 1113.5 L 449.5 1123 L 446 1125.5 L 460 1142.5 L 460 1145.5 Q 459.5 1149.5 454.5 1149 L 449 1144.5 L 439.5 1133 L 434 1137.5 Q 435.5 1145.5 431.5 1148 L 427.5 1149 L 424 1145.5 L 424 1094.5 L 427.5 1092 Z " /><path fill="rgb(72,69,68)" stroke="rgb(72,69,68)" stroke-width="1" opacity="0.9529411764705882" d="M 685.5 1093 Q 690.8 1091.8 692 1094.5 L 693 1096.5 L 693 1145.5 L 692 1148 L 686.5 1149 L 683.5 1144 Q 678.9 1150.9 665.5 1149 L 655 1142.5 Q 649 1136.5 651 1122.5 Q 653.1 1115.1 658.5 1111 Q 663.8 1106.8 673.5 1107 L 684 1112 L 684 1094.5 L 685.5 1093 Z M 668 1116 L 664 1118 L 659 1128 L 661 1136 Q 664 1140 671 1142 L 681 1138 L 684 1131 Q 685 1124 682 1121 Q 679 1114 668 1116 Z " /><path fill="rgb(72,69,68)" stroke="rgb(72,69,68)" stroke-width="1" opacity="0.9529411764705882" d="M 330.5 1095 L 371.5 1095 L 373 1096.5 Q 374.3 1102.6 371.5 1102 L 370.5 1103 L 355 1103 L 355 1146.5 L 353.5 1148 L 349.5 1149 L 346 1146.5 L 346 1103 L 330.5 1103 Q 327.3 1102.3 328 1097.5 L 330.5 1095 Z " /><path fill="rgb(72,69,68)" stroke="rgb(72,69,68)" stroke-width="1" opacity="0.9529411764705882" d="M 594.5 1095 Q 599.8 1093.8 601 1096.5 L 602 1098.5 L 602 1145.5 L 601 1148 L 595.5 1149 L 592 1145.5 L 592 1098.5 L 594.5 1095 Z " /><path fill="rgb(72,69,68)" stroke="rgb(72,69,68)" stroke-width="1" opacity="0.9529411764705882" d="M 379.5 1107 L 389.5 1107 L 399 1112 L 404 1122.5 L 404 1129.5 L 401.5 1132 L 374 1132.5 L 378.5 1139 Q 381.2 1141.8 387.5 1141 L 396.5 1136 L 399.5 1136 L 402 1137 Q 403.3 1144.3 397.5 1146 Q 392 1150.5 380.5 1149 Q 371.4 1146.5 367 1139.5 L 364 1131.5 L 364 1124.5 L 370 1112 L 379.5 1107 Z M 385 1115 L 379 1117 L 374 1124 L 394 1124 L 393 1120 L 391 1117 L 385 1115 Z " /><path fill="rgb(72,69,68)" stroke="rgb(72,69,68)" stroke-width="1" opacity="0.9529411764705882" d="M 475.5 1107 Q 493.2 1105.3 499 1115.5 L 503 1124.5 L 503 1131.5 Q 500.9 1140.4 494.5 1145 Q 488.8 1150.8 475.5 1149 Q 466.8 1146.2 462 1139.5 Q 457.6 1134.3 459 1123.5 Q 461.8 1114.8 468.5 1110 L 475.5 1107 Z M 477 1116 L 475 1117 L 469 1125 L 470 1135 Q 473 1139 480 1141 L 488 1139 L 493 1132 Q 494 1124 491 1121 Q 488 1114 477 1116 Z " /><path fill="rgb(72,69,68)" stroke="rgb(72,69,68)" stroke-width="1" opacity="0.9529411764705882" d="M 509.5 1107 L 515 1108 Q 513.9 1110.7 516.5 1110 Q 520.6 1105.1 531.5 1107 L 539.5 1112 Q 543.7 1104.7 557.5 1107 L 565 1112.5 L 568 1119.5 L 568 1145.5 L 567 1148 L 562.5 1149 L 559 1146.5 L 559 1123.5 L 558 1119.5 L 555.5 1117 L 547.5 1116 L 543 1119.5 L 542 1121.5 L 542 1145.5 L 538.5 1149 L 533 1146.5 L 532 1144.5 L 532 1120.5 L 529.5 1117 L 521.5 1116 L 517 1119.5 L 516 1122.5 L 516 1145.5 L 512.5 1149 Q 507.8 1148.8 506 1145.5 L 506 1110.5 L 509.5 1107 Z " /><path fill="rgb(72,69,68)" stroke="rgb(72,69,68)" stroke-width="1" opacity="0.9529411764705882" d="M 627.5 1107 Q 638.5 1106.5 643 1112.5 L 647 1121.5 L 647 1145.5 L 646 1148 L 640.5 1149 L 638 1146.5 L 638 1125.5 L 637 1120.5 L 634.5 1117 Q 631.3 1114.7 624.5 1116 L 620 1119.5 L 619 1121.5 L 619 1145.5 L 618 1148 L 612.5 1149 L 610 1146.5 L 610 1110.5 Q 611 1107 616.5 1108 L 618 1111 L 627.5 1107 Z " /><path fill="rgb(72,69,68)" stroke="rgb(72,69,68)" stroke-width="1" opacity="0.9529411764705882" d="M 716.5 1107 Q 731.6 1106.9 737 1116.5 Q 742 1122 740 1134.5 L 732.5 1145 Q 726.5 1151 712.5 1149 L 702 1143 L 698 1136.5 L 697 1124.5 L 703.5 1113 L 711.5 1108 L 716.5 1107 Z M 714 1116 L 711 1118 L 706 1125 Q 705 1133 708 1137 L 718 1142 L 726 1140 L 731 1133 L 730 1122 Q 726 1114 714 1116 Z " /><path fill="rgb(72,69,68)" stroke="rgb(72,69,68)" stroke-width="1" opacity="0.9529411764705882" d="M 762.5 1107 Q 773.5 1106.5 778 1112.5 L 781 1118.5 L 781 1146.5 Q 780.3 1149.8 775.5 1149 L 773 1146.5 L 773 1123.5 L 769.5 1117 Q 766.3 1114.7 759.5 1116 L 755 1119.5 L 753 1123.5 L 753 1146.5 L 750.5 1149 Q 745.8 1149.8 745 1146.5 L 745 1109.5 L 746.5 1108 L 753 1109 L 753.5 1112 L 762.5 1107 Z " /><path fill="rgb(72,69,68)" stroke="rgb(72,69,68)" stroke-width="1" opacity="0.9529411764705882" d="M 802.5 1107 Q 815.7 1106.8 821 1114.5 Q 824.6 1119.9 825 1128.5 L 822.5 1132 L 795.5 1132 L 795 1134.5 L 799.5 1140 Q 802.2 1142.8 808.5 1142 L 817.5 1137 L 820.5 1137 Q 823.5 1137.5 823 1141.5 L 822 1144 L 815.5 1148 L 805.5 1150 L 795.5 1147 L 789 1141.5 L 785 1132.5 L 785 1124.5 Q 786.9 1115.4 793.5 1111 L 802.5 1107 Z M 805 1115 L 801 1116 Q 795 1119 795 1125 L 816 1125 L 814 1120 Q 811 1115 805 1115 Z " /><path fill="rgb(72,69,68)" stroke="rgb(72,69,68)" stroke-width="1" opacity="0.9529411764705882" d="M 840.5 1107 Q 851.3 1107.2 857 1112.5 L 858 1114.5 L 855.5 1118 L 853.5 1119 Q 849 1114.5 838.5 1116 L 836 1119.5 L 838.5 1122 Q 849.9 1124.1 857 1130.5 L 859 1137.5 L 855 1146 Q 849.9 1150.7 837.5 1149 L 826 1144 Q 824.8 1138.5 828.5 1137 L 840.5 1142 L 845.5 1142 L 849 1139.5 L 850 1136.5 L 845.5 1133 L 832.5 1129 L 828 1124.5 L 827 1117.5 L 832.5 1110 L 840.5 1107 Z " /><path fill="rgb(72,69,68)" stroke="rgb(72,69,68)" stroke-width="1" opacity="0.9529411764705882" d="M 865.5 1108 Q 871 1107 872 1110.5 L 872 1146.5 L 869.5 1149 Q 864.8 1149.8 864 1146.5 L 864 1109.5 L 865.5 1108 Z " /><path fill="rgb(72,69,68)" stroke="rgb(72,69,68)" stroke-width="1" opacity="0.9529411764705882" d="M 888.5 1108 Q 905.3 1105.3 911 1113.5 L 914 1120.5 L 914 1146.5 Q 913 1150 907.5 1149 L 903.5 1146 Q 899.1 1151.1 887.5 1149 Q 881 1147.5 878 1142.5 Q 875.5 1139 877 1131.5 L 882.5 1125 L 891.5 1122 L 899.5 1122 L 905 1123 L 901.5 1117 Q 898 1114.5 890.5 1116 Q 888.2 1118.7 882.5 1118 Q 879.3 1117.3 880 1112.5 L 882.5 1110 L 888.5 1108 Z M 891 1130 L 886 1134 L 887 1140 L 891 1142 Q 898 1143 902 1140 Q 906 1138 905 1131 L 903 1130 L 891 1130 Z " /><path fill="rgb(72,69,68)" stroke="rgb(72,69,68)" stroke-width="1" opacity="0.9529411764705882" d="M 262.5 1109 L 269 1109 L 269 1121.5 L 271.5 1120 Q 274.7 1117.7 281.5 1119 L 288 1124.5 Q 291 1128.5 290 1136.5 L 284.5 1145 Q 281.2 1148.2 273.5 1147 L 269.5 1144 L 267.5 1147 Q 262.3 1148.3 261 1145.5 L 261 1110.5 L 262.5 1109 Z M 275 1125 L 273 1126 L 269 1131 L 270 1138 L 275 1141 L 280 1140 L 283 1133 L 281 1128 Q 280 1124 275 1125 Z " /><path fill="rgb(72,69,68)" stroke="rgb(72,69,68)" stroke-width="1" opacity="0.9529411764705882" d="M 291 1119 Q 298.1 1117.3 300 1121.5 L 305.5 1137 L 310 1122.5 L 312.5 1119 L 319 1119 L 319 1121.5 L 308 1149.5 L 303.5 1154 L 296.5 1155 L 293 1154 Q 292.2 1149 295.5 1147 L 300.5 1148 L 302 1145.5 L 293 1126.5 L 291 1119 Z " /></svg>