<svg width="1667" height="527" version="1.1" xmlns="http://www.w3.org/2000/svg" desc="Created with imagetracer.js version 1.2.6" ><path fill="rgb(0,0,0)" stroke="rgb(0,0,0)" stroke-width="1" opacity="0" d="M 0 0 L 1666.5 0 L 1667 0.5 L 1667 527 L 0.5 527 L 0 526.5 L 0 0 Z M 1306 46 L 1302 48 L 1294 58 L 1155 402 L 1149 415 L 1045 159 L 1037 152 Q 1030 151 1027 154 L 1022 161 L 1023 172 L 1140 459 L 1146 462 Q 1154 463 1158 460 L 1163 452 L 1309 95 L 1457 458 L 1464 462 Q 1472 463 1476 460 L 1480 454 L 1595 169 Q 1597 161 1594 158 Q 1591 153 1586 152 Q 1579 151 1577 154 L 1573 158 L 1568 169 L 1469 416 L 1321 53 Q 1317 45 1306 46 Z M 381 155 L 374 158 L 255 449 L 256 458 L 263 462 L 269 461 L 275 452 L 382 191 L 492 459 L 498 462 Q 504 463 506 460 L 509 453 L 501 430 L 392 162 Q 389 155 381 155 Z M 78 156 L 76 157 L 72 162 L 72 456 L 73 458 L 77 461 L 81 462 L 87 460 L 90 455 L 90 311 L 230 311 L 235 304 L 234 299 L 227 293 L 90 293 L 90 174 L 246 174 L 250 173 L 254 169 L 253 160 L 249 156 L 78 156 Z M 551 156 L 549 157 L 545 162 L 545 456 L 546 458 L 550 461 L 554 462 L 715 462 L 720 460 L 723 456 Q 724 449 721 446 L 718 444 L 564 444 L 564 164 L 563 161 Q 561 154 551 156 Z M 1306 200 Q 1300 204 1298 211 L 1200 452 Q 1199 457 1202 460 L 1206 462 L 1213 461 L 1217 455 L 1309 231 L 1400 454 L 1407 462 L 1414 461 L 1417 457 L 1417 450 L 1317 205 Q 1315 199 1306 200 Z M 765 234 L 763 235 L 760 239 L 760 458 L 767 462 L 772 460 L 774 457 L 774 239 L 772 235 Q 770 233 765 234 Z M 815 234 L 811 238 L 811 458 L 812 460 L 817 462 L 821 461 L 824 458 L 825 261 L 968 458 L 975 462 L 979 461 L 982 457 L 982 239 L 979 234 L 972 235 L 969 239 L 969 436 L 825 240 L 820 234 L 815 234 Z M 376 348 L 370 351 Q 364 355 361 363 Q 359 375 364 381 L 373 388 L 381 390 L 393 387 L 400 380 L 403 370 Q 403 361 399 357 Q 395 351 388 348 L 376 348 Z M 1305 351 L 1299 354 Q 1293 358 1291 367 Q 1291 376 1295 381 L 1306 387 Q 1317 388 1322 383 L 1327 375 L 1328 370 Q 1328 362 1324 358 L 1315 351 L 1305 351 Z " /><path fill="rgb(153,88,44)" stroke="rgb(153,88,44)" stroke-width="1" opacity="0.9686274509803922" d="M 1305.5 46 Q 1317.2 45.3 1321 52.5 L 1468.5 416 L 1568 168.5 L 1573 157.5 L 1576.5 154 Q 1579.4 151.4 1585.5 152 Q 1591.3 153.3 1594 157.5 Q 1596.5 161 1595 168.5 L 1480 453.5 L 1475.5 460 Q 1471.8 463.3 1463.5 462 L 1457 457.5 L 1308.5 95 L 1163 451.5 L 1157.5 460 Q 1153.8 463.3 1145.5 462 L 1140 458.5 L 1023 171.5 L 1022 160.5 L 1026.5 154 Q 1029.8 151.3 1036.5 152 L 1045 158.5 L 1148.5 415 L 1155 401.5 L 1294 57.5 L 1301.5 48 L 1305.5 46 Z " /><path fill="rgb(153,88,44)" stroke="rgb(153,88,44)" stroke-width="1" opacity="0.9686274509803922" d="M 380.5 155 Q 389.5 155 392 161.5 L 501 429.5 L 509 452.5 L 506 460 Q 503.7 462.6 497.5 462 L 492 458.5 L 381.5 191 L 275 451.5 L 268.5 461 L 262.5 462 L 256 457.5 L 255 448.5 L 374 158 L 380.5 155 Z " /><path fill="rgb(153,88,44)" stroke="rgb(153,88,44)" stroke-width="1" opacity="0.9686274509803922" d="M 77.5 156 L 248.5 156 L 253 159.5 L 254 168.5 L 249.5 173 L 245.5 174 L 90 174 L 90 293 L 226.5 293 L 234 298.5 L 235 303.5 L 229.5 311 L 90 311 L 90 454.5 L 86.5 460 L 80.5 462 L 76.5 461 L 73 457.5 L 72 455.5 L 72 161.5 L 75.5 157 L 77.5 156 Z " /><path fill="rgb(153,88,44)" stroke="rgb(153,88,44)" stroke-width="1" opacity="0.9686274509803922" d="M 550.5 156 Q 561 154 563 160.5 L 564 163.5 L 564 444 L 717.5 444 L 721 446 Q 723.7 448.6 723 455.5 L 719.5 460 L 714.5 462 L 553.5 462 L 549.5 461 L 546 457.5 L 545 455.5 L 545 161.5 L 548.5 157 L 550.5 156 Z " /><path fill="rgb(153,88,44)" stroke="rgb(153,88,44)" stroke-width="1" opacity="0.9686274509803922" d="M 1305.5 200 Q 1314.8 198.7 1317 204.5 L 1417 449.5 L 1417 456.5 L 1413.5 461 L 1406.5 462 L 1400 453.5 L 1308.5 231 L 1217 454.5 L 1212.5 461 L 1205.5 462 L 1202 459.5 Q 1199.3 457.2 1200 451.5 L 1298 210.5 Q 1300.3 203.8 1305.5 200 Z " /><path fill="rgb(153,88,44)" stroke="rgb(153,88,44)" stroke-width="1" opacity="0.9686274509803922" d="M 764.5 234 Q 769.9 233.4 772 235 L 774 238.5 L 774 456.5 L 772 460 L 766.5 462 L 760 457.5 L 760 238.5 L 762.5 235 L 764.5 234 Z " /><path fill="rgb(153,88,44)" stroke="rgb(153,88,44)" stroke-width="1" opacity="0.9686274509803922" d="M 814.5 234 L 819.5 234 L 825 239.5 L 968.5 436 L 969 238.5 L 971.5 235 L 978.5 234 L 982 238.5 L 982 456.5 L 978.5 461 L 974.5 462 L 968 457.5 L 824.5 261 L 824 457.5 L 820.5 461 L 816.5 462 L 812 459.5 L 811 457.5 L 811 237.5 L 814.5 234 Z " /><path fill="rgb(153,88,44)" stroke="rgb(153,88,44)" stroke-width="1" opacity="0.9686274509803922" d="M 375.5 348 L 387.5 348 Q 394.9 350.6 399 356.5 Q 402.8 361.2 403 369.5 L 400 379.5 L 392.5 387 L 380.5 390 L 372.5 388 L 364 380.5 Q 359 375 361 362.5 Q 363.6 355.1 369.5 351 L 375.5 348 Z " /><path fill="rgb(153,88,44)" stroke="rgb(153,88,44)" stroke-width="1" opacity="0.9686274509803922" d="M 1304.5 351 L 1314.5 351 L 1324 357.5 Q 1327.7 361.8 1328 369.5 L 1327 374.5 L 1321.5 383 Q 1316.8 388.3 1305.5 387 L 1295 380.5 Q 1290.5 376 1291 366.5 Q 1292.7 358.2 1298.5 354 L 1304.5 351 Z " /></svg>